<svg width="56" height="56" viewBox="0 0 56 56" fill="none" xmlns="http://www.w3.org/2000/svg">
<path d="M0 8C0 3.58172 3.58172 0 8 0H48C52.4183 0 56 3.58172 56 8V48C56 52.4183 52.4183 56 48 56H8C3.58172 56 0 52.4183 0 48V8Z" fill="white" fill-opacity="0.1"/>
<g filter="url(#filter1_f_1_2615)">
<path d="M21.334 35.083C20.828 35.083 20.4171 35.4937 20.417 36L20.4219 36.0938C20.469 36.5554 20.8591 36.916 21.334 36.916L21.4277 36.9111C21.8897 36.864 22.2498 36.4741 22.25 36L22.2451 35.9062C22.1981 35.4439 21.8079 35.0833 21.334 35.083ZM34.667 35.083C34.161 35.083 33.7501 35.4937 33.75 36L33.7549 36.0938C33.802 36.5554 34.1921 36.916 34.667 36.916L34.7607 36.9111C35.2227 36.8641 35.5828 36.4743 35.583 36L35.5781 35.9062C35.5311 35.4437 35.1408 35.0832 34.667 35.083ZM32.417 32.2012C33.0759 31.8098 33.8443 31.583 34.667 31.583C36.4854 31.5832 38.0424 32.6823 38.7197 34.25H39.584V29.9502L35.1572 24.417H32.417V32.2012ZM17.334 19.083C17.1215 19.083 16.9163 19.1572 16.7529 19.291L16.6855 19.3516C16.5137 19.5234 16.4171 19.7569 16.417 20V34.25H17.2803C17.9579 32.6821 19.5155 31.583 21.334 31.583C23.1522 31.5833 24.7094 32.6823 25.3867 34.25H28.917V20C28.9169 19.7569 28.8203 19.5234 28.6484 19.3516C28.501 19.2041 28.3077 19.1128 28.1016 19.0898L27.9668 19.083H17.334ZM43.084 34.667L43.0801 34.8203C43.0446 35.5317 42.7637 36.2089 42.2861 36.7363L42.1807 36.8467C41.6386 37.3887 40.9151 37.7081 40.1533 37.7461L40 37.75H38.7197C38.0668 39.261 36.5968 40.3362 34.8633 40.4121L34.667 40.416C32.849 40.416 31.2902 39.3182 30.6123 37.75H25.3867C24.7338 39.261 23.2636 40.3361 21.5303 40.4121L21.334 40.416C19.516 40.416 17.9572 39.3182 17.2793 37.75H16C15.2332 37.7499 14.4959 37.464 13.9307 36.9521L13.8203 36.8467C13.242 36.2684 12.917 35.4837 12.917 34.666V20L12.9229 19.7812C12.977 18.6895 13.4345 17.6534 14.2109 16.877C15.039 16.0491 16.1625 15.583 17.334 15.583H28.0234L28.1934 15.5869L28.2061 15.5879H28.2197C29.3116 15.6422 30.347 16.1009 31.123 16.877C31.9512 17.7051 32.4169 18.8286 32.417 20V20.917H35.3906L35.4199 20.9189L35.6533 20.9326L35.6807 20.9336L35.708 20.9375C36.051 20.9767 36.3859 21.0736 36.6973 21.2236C37.1115 21.4235 37.4777 21.7138 37.7666 22.0752H37.7676L42.4062 27.874L42.4189 27.8906L42.4316 27.9082L42.5361 28.0508L42.5596 28.084C42.8976 28.5876 43.0828 29.1833 43.084 29.7969V34.667Z" stroke="url(#paint0_linear_1_2615)" stroke-opacity="0.5" stroke-width="2"/>
</g>
<g filter="url(#filter2_f_1_2615)">
<path fill-rule="evenodd" clip-rule="evenodd" d="M28.1699 16.5869C29.0143 16.6289 29.8154 16.9834 30.416 17.584C31.0567 18.2247 31.4169 19.0939 31.417 20V21.917H35.3613L35.5947 21.9307C35.8261 21.9571 36.052 22.0225 36.2627 22.124C36.5438 22.2596 36.7916 22.4563 36.9863 22.7002L41.625 28.499L41.7295 28.6416C41.9585 28.9828 42.0832 29.3853 42.084 29.7988V34.667C42.0839 35.2193 41.8641 35.749 41.4736 36.1396C41.083 36.5303 40.5524 36.7499 40 36.75H37.999C37.6571 38.2758 36.296 39.4159 34.667 39.416C33.0377 39.416 31.675 38.276 31.333 36.75H24.666C24.3242 38.2758 22.9629 39.4157 21.334 39.416C19.7048 39.416 18.342 38.276 18 36.75H16C15.4477 36.7499 14.918 36.5302 14.5273 36.1396C14.1366 35.7489 13.917 35.2185 13.917 34.666V20C13.9171 19.0939 14.2773 18.2247 14.918 17.584C15.5587 16.9434 16.4279 16.583 17.334 16.583H28L28.1699 16.5869ZM21.334 34.083C20.2755 34.083 19.4171 34.9416 19.417 36C19.4172 37.0584 20.2755 37.916 21.334 37.916C22.3922 37.9157 23.2498 37.0582 23.25 36C23.2499 34.9418 22.3922 34.0833 21.334 34.083ZM34.667 34.083C33.6085 34.083 32.7501 34.9416 32.75 36C32.7502 37.0584 33.6086 37.916 34.667 37.916C35.7253 37.9158 36.5828 37.0583 36.583 36C36.5829 34.9417 35.7253 34.0832 34.667 34.083ZM17.334 18.083C16.8258 18.083 16.3379 18.2852 15.9785 18.6445C15.6191 19.0039 15.4171 19.4918 15.417 20V34.666C15.417 34.8207 15.4785 34.9697 15.5879 35.0791C15.6972 35.1883 15.8455 35.2499 16 35.25H18.001C18.3431 33.724 19.7049 32.583 21.334 32.583C22.9629 32.5833 24.3241 33.7242 24.666 35.25H29.917V20C29.9169 19.4918 29.7149 19.0039 29.3555 18.6445C29.0409 18.33 28.6282 18.1363 28.1895 18.0928L28 18.083H17.334ZM31.417 34.9434C31.8622 33.5736 33.1489 32.583 34.667 32.583C36.296 32.5832 37.6571 33.7241 37.999 35.25H40C40.1546 35.2499 40.3037 35.1884 40.4131 35.0791C40.5222 34.9698 40.5839 34.8215 40.584 34.667V29.8018L40.5752 29.7031C40.5585 29.6066 40.517 29.5148 40.4551 29.4375L35.8145 23.6367C35.76 23.5685 35.69 23.5126 35.6113 23.4746C35.572 23.4557 35.5305 23.4413 35.4883 23.4316L35.3594 23.417H31.417V34.9434Z" stroke="url(#paint1_linear_1_2615)" stroke-opacity="0.4" stroke-width="4"/>
</g>
<path d="M17.334 17.083H27.9883L28.1543 17.0859C28.8714 17.1239 29.5518 17.4268 30.0625 17.9375C30.6095 18.4845 30.9169 19.2266 30.917 20V21.917C30.917 22.1931 31.1408 22.417 31.417 22.417H35.3486L35.541 22.4277C35.7154 22.448 35.8864 22.4973 36.0459 22.5742C36.2066 22.6518 36.3523 22.7559 36.4775 22.8809L36.5957 23.0127L41.2275 28.8027L41.3203 28.9297C41.4693 29.155 41.5585 29.4142 41.5791 29.6826L41.584 29.7998V34.667L41.5762 34.8232C41.5453 35.1336 41.4234 35.4284 41.2256 35.6699L41.1201 35.7861C40.8233 36.0829 40.4199 36.2499 40 36.25H37.999C37.765 36.25 37.5619 36.4123 37.5107 36.6406C37.2189 37.9432 36.0567 38.9159 34.667 38.916C33.2767 38.916 32.1132 37.9432 31.8213 36.6406C31.7701 36.4123 31.567 36.25 31.333 36.25H24.666C24.432 36.25 24.2289 36.4123 24.1777 36.6406C23.8859 37.9431 22.7237 38.9158 21.334 38.916C19.9438 38.916 18.7802 37.9432 18.4883 36.6406C18.4371 36.4123 18.234 36.25 18 36.25H16C15.633 36.2499 15.2788 36.1224 14.9971 35.8916L14.8809 35.7861C14.5839 35.4892 14.417 35.086 14.417 34.666V20C14.4171 19.2266 14.7245 18.4845 15.2715 17.9375C15.8185 17.3906 16.5607 17.083 17.334 17.083ZM21.334 33.583C19.9993 33.583 18.9172 34.6655 18.917 36L18.9297 36.2471C19.0536 37.4657 20.083 38.416 21.334 38.416C22.6681 38.4156 23.7498 37.3343 23.75 36L23.7373 35.7529C23.6135 34.5348 22.585 33.5834 21.334 33.583ZM34.667 33.583C33.3323 33.583 32.2502 34.6655 32.25 36L32.2627 36.2471C32.3866 37.4657 33.416 38.416 34.667 38.416C36.0014 38.4158 37.0828 37.3344 37.083 36L37.0703 35.7529C36.9465 34.5347 35.9183 33.5832 34.667 33.583ZM17.334 17.583C16.7732 17.583 16.2327 17.7787 15.8027 18.1309L15.625 18.291C15.1718 18.7442 14.9171 19.3592 14.917 20V34.666C14.917 34.9171 15.0039 35.1604 15.1621 35.3535L15.2344 35.4326C15.4118 35.6099 15.6447 35.7203 15.8926 35.7451L16 35.75H18.001C18.235 35.75 18.4381 35.5877 18.4893 35.3594C18.7814 34.0565 19.9443 33.083 21.334 33.083C22.7234 33.0833 23.8858 34.0566 24.1777 35.3594C24.2289 35.5877 24.432 35.75 24.666 35.75H29.917C30.1931 35.75 30.417 35.5261 30.417 35.25V20L30.4053 19.7607C30.3502 19.2077 30.1054 18.6874 29.709 18.291C29.3124 17.8944 28.7921 17.6507 28.2393 17.5957L28.2148 17.5938L28.0254 17.584L28 17.583H17.334ZM41.082 29.7578L41.0732 29.6592L41.0674 29.6182L41.0361 29.4844C41.0093 29.3973 40.9714 29.3139 40.9238 29.2363L40.8457 29.125L36.2041 23.3242C36.1032 23.1981 35.9749 23.0949 35.8291 23.0244H35.8281C35.7545 22.989 35.6774 22.9621 35.5996 22.9443L35.5449 22.9346L35.416 22.9199C35.3973 22.9178 35.3782 22.917 35.3594 22.917H31.417C31.1408 22.917 30.917 23.1408 30.917 23.417V34.9434C30.917 35.1893 31.096 35.399 31.3389 35.4375C31.5817 35.4759 31.8166 35.3315 31.8926 35.0977C32.2729 33.9278 33.3721 33.083 34.667 33.083C36.0565 33.0832 37.2188 34.0565 37.5107 35.3594C37.5619 35.5877 37.765 35.75 37.999 35.75H40C40.2508 35.7499 40.4943 35.6631 40.6875 35.5049L40.7666 35.4326C40.9688 35.2301 41.0839 34.9545 41.084 34.667V29.8018C41.084 29.7871 41.0833 29.7724 41.082 29.7578Z" stroke="white" stroke-opacity="0.8" stroke-linecap="round" stroke-linejoin="round"/>
<defs>
<filter id="filter1_f_1_2615" x="7.91699" y="10.583" width="40.167" height="34.833" filterUnits="userSpaceOnUse" color-interpolation-filters="sRGB">
<feFlood flood-opacity="0" result="BackgroundImageFix"/>
<feBlend mode="normal" in="SourceGraphic" in2="BackgroundImageFix" result="shape"/>
<feGaussianBlur stdDeviation="2" result="effect1_foregroundBlur_1_2615"/>
</filter>
<filter id="filter2_f_1_2615" x="3.91699" y="6.58301" width="48.167" height="42.833" filterUnits="userSpaceOnUse" color-interpolation-filters="sRGB">
<feFlood flood-opacity="0" result="BackgroundImageFix"/>
<feBlend mode="normal" in="SourceGraphic" in2="BackgroundImageFix" result="shape"/>
<feGaussianBlur stdDeviation="4" result="effect1_foregroundBlur_1_2615"/>
</filter>
<linearGradient id="paint0_linear_1_2615" x1="28.0005" y1="16.583" x2="28.0005" y2="39.416" gradientUnits="userSpaceOnUse">
<stop stop-color="#9955FF"/>
<stop offset="1" stop-color="#5523A0"/>
</linearGradient>
<linearGradient id="paint1_linear_1_2615" x1="28.0005" y1="16.583" x2="28.0005" y2="39.416" gradientUnits="userSpaceOnUse">
<stop stop-color="#9955FF"/>
<stop offset="1" stop-color="#5523A0"/>
</linearGradient>
</defs>
</svg>
