<svg width="56" height="56" viewBox="0 0 56 56" fill="none" xmlns="http://www.w3.org/2000/svg">
<path d="M0 8C0 3.58172 3.58172 0 8 0H48C52.4183 0 56 3.58172 56 8V48C56 52.4183 52.4183 56 48 56H8C3.58172 56 0 52.4183 0 48V8Z" fill="white" fill-opacity="0.1"/>
<path d="M10.1097 39.2727V48H8.26456V41.0241H8.21342L6.21484 42.277V40.6406L8.37536 39.2727H10.1097ZM15.6058 48.1918C14.8729 48.1889 14.2422 48.0085 13.7138 47.6506C13.1882 47.2926 12.7834 46.7741 12.4993 46.0952C12.218 45.4162 12.0788 44.5994 12.0817 43.6449C12.0817 42.6932 12.2223 41.8821 12.5036 41.2116C12.7876 40.5412 13.1925 40.0312 13.718 39.6818C14.2464 39.3295 14.8757 39.1534 15.6058 39.1534C16.3359 39.1534 16.9638 39.3295 17.4893 39.6818C18.0178 40.0341 18.424 40.5455 18.7081 41.2159C18.9922 41.8835 19.1328 42.6932 19.13 43.6449C19.13 44.6023 18.9879 45.4205 18.7038 46.0994C18.4226 46.7784 18.0192 47.2969 17.4936 47.6548C16.968 48.0128 16.3388 48.1918 15.6058 48.1918ZM15.6058 46.6619C16.1058 46.6619 16.505 46.4105 16.8033 45.9077C17.1016 45.4048 17.2493 44.6506 17.2464 43.6449C17.2464 42.983 17.1783 42.4318 17.0419 41.9915C16.9084 41.5511 16.718 41.2202 16.4709 40.9986C16.2266 40.777 15.9382 40.6662 15.6058 40.6662C15.1087 40.6662 14.7109 40.9148 14.4126 41.4119C14.1143 41.9091 13.9638 42.6534 13.9609 43.6449C13.9609 44.3153 14.0277 44.875 14.1612 45.3239C14.2976 45.7699 14.4893 46.1051 14.7365 46.3295C14.9837 46.5511 15.2734 46.6619 15.6058 46.6619ZM23.8675 48.1918C23.1346 48.1889 22.5039 48.0085 21.9755 47.6506C21.4499 47.2926 21.0451 46.7741 20.761 46.0952C20.4798 45.4162 20.3406 44.5994 20.3434 43.6449C20.3434 42.6932 20.484 41.8821 20.7653 41.2116C21.0494 40.5412 21.4542 40.0312 21.9798 39.6818C22.5082 39.3295 23.1374 39.1534 23.8675 39.1534C24.5977 39.1534 25.2255 39.3295 25.7511 39.6818C26.2795 40.0341 26.6857 40.5455 26.9698 41.2159C27.2539 41.8835 27.3945 42.6932 27.3917 43.6449C27.3917 44.6023 27.2496 45.4205 26.9656 46.0994C26.6843 46.7784 26.2809 47.2969 25.7553 47.6548C25.2298 48.0128 24.6005 48.1918 23.8675 48.1918ZM23.8675 46.6619C24.3675 46.6619 24.7667 46.4105 25.065 45.9077C25.3633 45.4048 25.511 44.6506 25.5082 43.6449C25.5082 42.983 25.44 42.4318 25.3036 41.9915C25.1701 41.5511 24.9798 41.2202 24.7326 40.9986C24.4883 40.777 24.1999 40.6662 23.8675 40.6662C23.3704 40.6662 22.9727 40.9148 22.6744 41.4119C22.3761 41.9091 22.2255 42.6534 22.2227 43.6449C22.2227 44.3153 22.2894 44.875 22.4229 45.3239C22.5593 45.7699 22.7511 46.1051 22.9982 46.3295C23.2454 46.5511 23.5352 46.6619 23.8675 46.6619Z" fill="white"/>
<path d="M31.0447 48V41.4545H32.7749V42.6094H32.8516C32.9879 42.2259 33.2152 41.9233 33.5334 41.7017C33.8516 41.4801 34.2322 41.3693 34.6754 41.3693C35.1243 41.3693 35.5064 41.4815 35.8217 41.706C36.1371 41.9276 36.3473 42.2287 36.4524 42.6094H36.5206C36.6541 42.2344 36.8956 41.9347 37.245 41.7102C37.5973 41.483 38.0135 41.3693 38.4936 41.3693C39.1044 41.3693 39.6001 41.5639 39.9808 41.9531C40.3643 42.3395 40.5561 42.8878 40.5561 43.598V48H38.745V43.956C38.745 43.5923 38.6484 43.3196 38.4553 43.1378C38.2621 42.956 38.0206 42.8651 37.7308 42.8651C37.4013 42.8651 37.1442 42.9702 36.9595 43.1804C36.7749 43.3878 36.6825 43.6619 36.6825 44.0028V48H34.9226V43.9176C34.9226 43.5966 34.8303 43.3409 34.6456 43.1506C34.4638 42.9602 34.2237 42.8651 33.9254 42.8651C33.7237 42.8651 33.5419 42.9162 33.38 43.0185C33.2209 43.1179 33.0945 43.2585 33.0007 43.4403C32.907 43.6193 32.8601 43.8295 32.8601 44.071V48H31.0447ZM41.9901 48V41.4545H43.8054V48H41.9901ZM42.902 40.6108C42.6321 40.6108 42.4006 40.5213 42.2074 40.3423C42.017 40.1605 41.9219 39.9432 41.9219 39.6903C41.9219 39.4403 42.017 39.2259 42.2074 39.0469C42.4006 38.8651 42.6321 38.7741 42.902 38.7741C43.1719 38.7741 43.402 38.8651 43.5923 39.0469C43.7855 39.2259 43.8821 39.4403 43.8821 39.6903C43.8821 39.9432 43.7855 40.1605 43.5923 40.3423C43.402 40.5213 43.1719 40.6108 42.902 40.6108ZM47.0749 44.2159V48H45.2596V41.4545H46.9897V42.6094H47.0664C47.2113 42.2287 47.4542 41.9276 47.7951 41.706C48.136 41.4815 48.5494 41.3693 49.0352 41.3693C49.4897 41.3693 49.886 41.4688 50.2241 41.6676C50.5621 41.8665 50.8249 42.1506 51.0124 42.5199C51.1999 42.8864 51.2937 43.3239 51.2937 43.8324V48H49.4783V44.1562C49.4812 43.7557 49.3789 43.4432 49.1715 43.2188C48.9641 42.9915 48.6786 42.8778 48.315 42.8778C48.0707 42.8778 47.8548 42.9304 47.6673 43.0355C47.4826 43.1406 47.3377 43.294 47.2326 43.4957C47.1303 43.6946 47.0778 43.9347 47.0749 44.2159Z" fill="white"/>
<path d="M19.0309 25.2727L20.8207 31.4261H20.8888L22.6786 25.2727H25.3548L22.4741 34H19.2354L16.3548 25.2727H19.0309ZM28.5646 25.2727V34H26.1953V25.2727H28.5646ZM30.6875 34V25.2727H34.4545C35.1023 25.2727 35.669 25.4006 36.1548 25.6562C36.6406 25.9119 37.0185 26.2713 37.2884 26.7344C37.5582 27.1974 37.6932 27.7386 37.6932 28.358C37.6932 28.983 37.554 29.5241 37.2756 29.9815C37 30.4389 36.6122 30.7912 36.1122 31.0384C35.6151 31.2855 35.0341 31.4091 34.3693 31.4091H32.1193V29.5682H33.892C34.1705 29.5682 34.4077 29.5199 34.6037 29.4233C34.8026 29.3239 34.9545 29.1832 35.0597 29.0014C35.1676 28.8196 35.2216 28.6051 35.2216 28.358C35.2216 28.108 35.1676 27.8949 35.0597 27.7188C34.9545 27.5398 34.8026 27.4034 34.6037 27.3097C34.4077 27.2131 34.1705 27.1648 33.892 27.1648H33.0568V34H30.6875Z" fill="#FFA00F"/>
<path d="M19.0309 25.2727L20.8207 31.4261H20.8888L22.6786 25.2727H25.3548L22.4741 34H19.2354L16.3548 25.2727H19.0309ZM28.5646 25.2727V34H26.1953V25.2727H28.5646ZM30.6875 34V25.2727H34.4545C35.1023 25.2727 35.669 25.4006 36.1548 25.6562C36.6406 25.9119 37.0185 26.2713 37.2884 26.7344C37.5582 27.1974 37.6932 27.7386 37.6932 28.358C37.6932 28.983 37.554 29.5241 37.2756 29.9815C37 30.4389 36.6122 30.7912 36.1122 31.0384C35.6151 31.2855 35.0341 31.4091 34.3693 31.4091H32.1193V29.5682H33.892C34.1705 29.5682 34.4077 29.5199 34.6037 29.4233C34.8026 29.3239 34.9545 29.1832 35.0597 29.0014C35.1676 28.8196 35.2216 28.6051 35.2216 28.358C35.2216 28.108 35.1676 27.8949 35.0597 27.7188C34.9545 27.5398 34.8026 27.4034 34.6037 27.3097C34.4077 27.2131 34.1705 27.1648 33.892 27.1648H33.0568V34H30.6875Z" fill="url(#paint0_linear_1_2697)" fill-opacity="0.3" style="mix-blend-mode:overlay"/>
<path d="M19.0309 25.2727L20.8207 31.4261H20.8888L22.6786 25.2727H25.3548L22.4741 34H19.2354L16.3548 25.2727H19.0309ZM28.5646 25.2727V34H26.1953V25.2727H28.5646ZM30.6875 34V25.2727H34.4545C35.1023 25.2727 35.669 25.4006 36.1548 25.6562C36.6406 25.9119 37.0185 26.2713 37.2884 26.7344C37.5582 27.1974 37.6932 27.7386 37.6932 28.358C37.6932 28.983 37.554 29.5241 37.2756 29.9815C37 30.4389 36.6122 30.7912 36.1122 31.0384C35.6151 31.2855 35.0341 31.4091 34.3693 31.4091H32.1193V29.5682H33.892C34.1705 29.5682 34.4077 29.5199 34.6037 29.4233C34.8026 29.3239 34.9545 29.1832 35.0597 29.0014C35.1676 28.8196 35.2216 28.6051 35.2216 28.358C35.2216 28.108 35.1676 27.8949 35.0597 27.7188C34.9545 27.5398 34.8026 27.4034 34.6037 27.3097C34.4077 27.2131 34.1705 27.1648 33.892 27.1648H33.0568V34H30.6875Z" fill="url(#paint1_radial_1_2697)" fill-opacity="0.6" style="mix-blend-mode:overlay"/>
<path d="M31.188 12.7808L27.5792 7L23.9704 12.7808L17.5004 7.27887L21.1941 18.4942H33.9644L37.658 7.27887L31.188 12.7808Z" fill="#FFA00F"/>
<path d="M31.188 12.7808L27.5792 7L23.9704 12.7808L17.5004 7.27887L21.1941 18.4942H33.9644L37.658 7.27887L31.188 12.7808Z" fill="url(#paint2_linear_1_2697)" fill-opacity="0.3" style="mix-blend-mode:overlay"/>
<path d="M31.188 12.7808L27.5792 7L23.9704 12.7808L17.5004 7.27887L21.1941 18.4942H33.9644L37.658 7.27887L31.188 12.7808Z" fill="url(#paint3_radial_1_2697)" fill-opacity="0.6" style="mix-blend-mode:overlay"/>
<path d="M32.9867 21H22.1723C21.6348 21 21.1943 20.5595 21.1943 20.0219V19.4036H33.9646V20.0219C33.9646 20.5595 33.5241 21 32.9867 21Z" fill="#FFA00F"/>
<path d="M32.9867 21H22.1723C21.6348 21 21.1943 20.5595 21.1943 20.0219V19.4036H33.9646V20.0219C33.9646 20.5595 33.5241 21 32.9867 21Z" fill="url(#paint4_linear_1_2697)" fill-opacity="0.3" style="mix-blend-mode:overlay"/>
<path d="M32.9867 21H22.1723C21.6348 21 21.1943 20.5595 21.1943 20.0219V19.4036H33.9646V20.0219C33.9646 20.5595 33.5241 21 32.9867 21Z" fill="url(#paint5_radial_1_2697)" fill-opacity="0.6" style="mix-blend-mode:overlay"/>
<defs>
<linearGradient id="paint0_linear_1_2697" x1="27" y1="21.9873" x2="27" y2="36" gradientUnits="userSpaceOnUse">
<stop stop-color="white"/>
<stop offset="1" stop-color="white" stop-opacity="0"/>
</linearGradient>
<radialGradient id="paint1_radial_1_2697" cx="0" cy="0" r="1" gradientUnits="userSpaceOnUse" gradientTransform="translate(16 21.9873) rotate(32.4947) scale(26.0836 11.9708)">
<stop stop-color="white"/>
<stop offset="1" stop-color="white" stop-opacity="0"/>
</radialGradient>
<linearGradient id="paint2_linear_1_2697" x1="27.5792" y1="3.84353" x2="27.5792" y2="18.4942" gradientUnits="userSpaceOnUse">
<stop stop-color="white"/>
<stop offset="1" stop-color="white" stop-opacity="0"/>
</linearGradient>
<radialGradient id="paint3_radial_1_2697" cx="0" cy="0" r="1" gradientUnits="userSpaceOnUse" gradientTransform="translate(17.5004 3.84353) rotate(36.0098) scale(24.9194 12.0035)">
<stop stop-color="white"/>
<stop offset="1" stop-color="white" stop-opacity="0"/>
</radialGradient>
<linearGradient id="paint4_linear_1_2697" x1="27.5795" y1="19.4036" x2="27.5795" y2="21" gradientUnits="userSpaceOnUse">
<stop stop-color="white"/>
<stop offset="1" stop-color="white" stop-opacity="0"/>
</linearGradient>
<radialGradient id="paint5_radial_1_2697" cx="0" cy="0" r="1" gradientUnits="userSpaceOnUse" gradientTransform="translate(21.1943 19.4036) rotate(7.1256) scale(12.8697 1.60445)">
<stop stop-color="white"/>
<stop offset="1" stop-color="white" stop-opacity="0"/>
</radialGradient>
</defs>
</svg>
