<svg width="56" height="56" viewBox="0 0 56 56" fill="none" xmlns="http://www.w3.org/2000/svg">
<path d="M0 8C0 3.58172 3.58172 0 8 0H48C52.4183 0 56 3.58172 56 8V48C56 52.4183 52.4183 56 48 56H8C3.58172 56 0 52.4183 0 48V8Z" fill="white" fill-opacity="0.1"/>
<g filter="url(#filter1_f_1_2631)">
<path d="M18.7604 14.2208C21.2758 13.4608 23.9252 13.2465 26.5299 13.5919C28.66 13.8745 30.7195 14.5281 32.6188 15.5157L32.6676 15.4738L32.6842 15.4591L32.7018 15.4454C33.2561 14.9992 33.9492 14.7522 34.6666 14.7521H34.6901L34.7135 14.7531L34.9215 14.7628L34.9723 14.7667C35.5044 14.8189 36.0119 15.0071 36.4479 15.3087L36.6305 15.4445L36.6481 15.4591L36.6647 15.4738L36.8209 15.6115L36.8444 15.632L36.8668 15.6544L40.3444 19.1329L40.3649 19.1534L40.3834 19.174L40.5221 19.3292L40.5553 19.3683C41.0014 19.9224 41.2476 20.6154 41.2477 21.3331V21.3595L41.2467 21.3849L41.236 21.5929L41.234 21.6163L41.2321 21.6388C41.169 22.2822 40.906 22.8896 40.4821 23.38C41.4703 25.2799 42.1252 27.3399 42.4078 29.4708C42.7316 31.9128 42.563 34.393 41.9147 36.7657L41.9108 36.7794L41.7819 37.2267L41.778 37.2394C41.7603 37.2979 41.7326 37.3804 41.691 37.4708L41.6764 37.504L41.6588 37.5353L41.6061 37.631L41.5905 37.6593L41.5729 37.6866C41.2705 38.1603 40.8461 38.5445 40.3444 38.798H40.3434C39.8425 39.0507 39.2814 39.1662 38.7194 39.1281H38.7184C38.157 39.0897 37.6163 38.9006 37.1539 38.5822V38.5812C36.7484 38.3016 36.4156 37.9315 36.1813 37.5021L36.1735 37.4874L36.1666 37.4728L36.1022 37.3448L36.0846 37.3107L36.0699 37.2745L36.0387 37.1984L36.027 37.17L36.0172 37.1417C35.2127 34.7856 34.0918 32.5527 32.6891 30.5011C32.5316 30.5371 32.3711 30.5633 32.2076 30.5743L31.9996 30.5812C31.988 30.5812 31.9761 30.5794 31.9645 30.5792L22.0983 40.4464C21.2844 41.2601 20.1984 41.7391 19.0553 41.796L19.0436 41.797H19.0328L18.8522 41.8019H18.8248C17.5978 41.8017 16.4203 41.3142 15.5524 40.4464C14.6846 39.5786 14.1973 38.4015 14.1969 37.1749V37.174C14.197 35.947 14.6845 34.7686 15.5524 33.9005L25.4186 24.0333C25.4185 24.0224 25.4186 24.011 25.4186 24.0001C25.4186 23.7655 25.4457 23.5345 25.4967 23.3107C23.604 22.0167 21.5569 20.962 19.401 20.1749L18.8492 19.9806V19.9796C18.798 19.9618 18.7429 19.9418 18.6871 19.9161V19.9152C18.175 19.6794 17.7366 19.3103 17.4176 18.8478V18.8468C17.0983 18.3835 16.9089 17.8426 16.8707 17.2814C16.8327 16.7197 16.9474 16.1581 17.2008 15.6564V15.6554C17.4541 15.1543 17.8384 14.7289 18.3141 14.4259L18.3444 14.4064L18.3756 14.3898L18.4713 14.338L18.4996 14.3224L18.5289 14.3087C18.6004 14.2759 18.6778 14.2455 18.7594 14.2208H18.7604ZM18.0983 36.4464C17.905 36.6398 17.7966 36.9022 17.7965 37.174L17.8014 37.2755C17.8249 37.5102 17.9293 37.7315 18.0983 37.9005L18.1735 37.9689C18.3544 38.1173 18.5808 38.1989 18.8151 38.2013L18.9323 38.1954C19.1655 38.171 19.385 38.0678 19.5524 37.9005L28.7867 28.6661L27.3317 27.2101L18.0983 36.4464ZM35.5573 28.3185C36.8427 30.1753 37.9235 32.1652 38.778 34.255C39.0068 32.8317 39.0289 31.3794 38.8385 29.9435C38.6622 28.6139 38.3069 27.3181 37.7858 26.09L35.5573 28.3185ZM29.2115 23.9991L31.9987 26.7872L37.4537 21.3331L34.6656 18.545L29.2115 23.9991ZM26.0563 17.1603C24.6186 16.9697 23.164 16.9913 21.7389 17.2208C23.8293 18.0753 25.8201 19.1559 27.6774 20.4415L29.9069 18.212C28.6797 17.6913 27.3844 17.3364 26.0563 17.1603Z" stroke="url(#paint0_linear_1_2631)" stroke-opacity="0.5" stroke-width="2"/>
</g>
<g filter="url(#filter2_f_1_2631)">
<path fill-rule="evenodd" clip-rule="evenodd" d="M19.0494 15.1781C21.4286 14.4592 23.9343 14.2567 26.3981 14.5834C28.6504 14.8821 30.8201 15.6186 32.7877 16.7465L33.1676 16.3676L33.1725 16.3617L33.3287 16.224C33.7061 15.9203 34.1781 15.7524 34.6666 15.7523L34.8746 15.7621C35.2877 15.8026 35.6802 15.9638 36.0035 16.224L36.1598 16.3617L39.6373 19.8402L39.776 19.9955C40.0798 20.3729 40.2477 20.8448 40.2477 21.3334L40.2369 21.5414C40.1897 22.0236 39.9793 22.4776 39.6373 22.8266L39.2526 23.2104C40.381 25.1785 41.1178 27.3489 41.4166 29.602C41.7229 31.9117 41.5632 34.2578 40.9498 36.5023L40.8209 36.9496C40.8103 36.9847 40.7981 37.0199 40.7828 37.0531L40.7301 37.1488C40.5242 37.4715 40.2349 37.7331 39.8932 37.9057C39.5514 38.0781 39.1687 38.1562 38.7867 38.1303C38.4049 38.1042 38.0365 37.9753 37.7213 37.7582C37.4455 37.5681 37.219 37.3158 37.0592 37.0229L36.9948 36.8949L36.9635 36.8187C36.045 34.1288 34.7294 31.5933 33.0631 29.2943C32.742 29.4793 32.3763 29.5814 31.9996 29.5814C31.8609 29.5814 31.7236 29.5678 31.5895 29.5414L21.3912 39.7396C20.7534 40.3773 19.902 40.7527 19.0055 40.7973L18.8248 40.8021C17.8628 40.802 16.9397 40.4199 16.2594 39.7396C15.5791 39.0594 15.1971 38.1362 15.1969 37.1742C15.1969 36.212 15.5791 35.2882 16.2594 34.6078L26.4586 24.4086C26.4326 24.275 26.4186 24.1384 26.4186 24.0004C26.4186 23.6239 26.5202 23.2581 26.7047 22.9369C24.564 21.3852 22.2178 20.1378 19.733 19.2318L19.1813 19.0375C19.1556 19.0287 19.1298 19.0186 19.1051 19.0072C18.757 18.847 18.4584 18.5952 18.2408 18.2797C18.0234 17.9642 17.8948 17.5956 17.8688 17.2133C17.8429 16.8311 17.9206 16.4488 18.0934 16.1068C18.2663 15.7648 18.528 15.4748 18.8512 15.2689L18.9469 15.2172C18.98 15.202 19.0145 15.1887 19.0494 15.1781ZM17.3912 35.7396C17.011 36.12 16.7965 36.6364 16.7965 37.1742C16.7967 37.7119 17.011 38.2276 17.3912 38.6078C17.7715 38.988 18.2871 39.2024 18.8248 39.2025L19.026 39.1918C19.4901 39.1456 19.9267 38.9404 20.2594 38.6078L30.2018 28.6664L27.3317 25.7973L17.3912 35.7396ZM34.2535 28.2094C36.0521 30.6599 37.47 33.3694 38.4586 36.2465C38.4987 36.3239 38.5575 36.3911 38.6295 36.4408C38.7081 36.4948 38.8 36.527 38.8951 36.5336C38.9904 36.5401 39.0863 36.5208 39.1715 36.4779C39.2305 36.4482 39.2829 36.4065 39.3268 36.3578C39.9485 34.2351 40.1206 32.0056 39.8297 29.8119C39.5774 27.9095 38.9826 26.0717 38.0768 24.3861L34.2535 28.2094ZM34.6666 17.352C34.5297 17.3521 34.3974 17.4051 34.2985 17.4994L28.1656 23.6322C28.0714 23.7313 28.0182 23.8634 28.0182 24.0004C28.0183 24.1371 28.0715 24.2686 28.1656 24.3676L31.6256 27.8285C31.7252 27.926 31.8603 27.9807 31.9996 27.9809C32.1391 27.9808 32.273 27.9261 32.3727 27.8285L38.4948 21.7064C38.5679 21.6318 38.6173 21.538 38.6373 21.4369L38.6471 21.3334C38.6471 21.1939 38.5924 21.06 38.4948 20.9604L35.0338 17.4994C34.9601 17.4295 34.8676 17.3821 34.7692 17.3627L34.6666 17.352ZM26.1881 16.1693C23.9941 15.8784 21.7633 16.0502 19.6403 16.6723C19.5915 16.7162 19.551 16.7695 19.5211 16.8285C19.4781 16.9139 19.4581 17.0095 19.4645 17.1049C19.471 17.2004 19.5039 17.2927 19.5582 17.3715C19.6087 17.4447 19.6773 17.5032 19.7565 17.5434C22.6313 18.5318 25.3389 19.9493 27.7877 21.7465L31.6119 17.9223C29.927 17.0169 28.0898 16.4216 26.1881 16.1693Z" stroke="url(#paint1_linear_1_2631)" stroke-opacity="0.4" stroke-width="4"/>
</g>
<path d="M19.194 15.6564C21.505 14.9581 23.9393 14.7619 26.3326 15.0792C28.52 15.3693 30.6274 16.0843 32.5387 17.1798C32.7343 17.292 32.9816 17.2599 33.1412 17.1007L33.5211 16.7218C33.5223 16.7207 33.5229 16.719 33.524 16.7179L33.6471 16.6085C33.9317 16.3813 34.2867 16.255 34.6539 16.2521L34.8346 16.2609C35.1441 16.293 35.4387 16.4138 35.6832 16.6085L35.8199 16.7286L39.2701 20.1798L39.3893 20.3136C39.6198 20.6018 39.7476 20.961 39.7477 21.3331L39.7389 21.4923C39.7029 21.8598 39.5435 22.2062 39.2838 22.4728L38.899 22.8566C38.7393 23.0162 38.7066 23.2632 38.819 23.4591C39.9152 25.3711 40.6303 27.4798 40.9205 29.6681C41.2176 31.9091 41.0635 34.1853 40.4694 36.3634L40.3424 36.8048C40.3374 36.8212 40.3332 36.8317 40.3307 36.838L40.3053 36.8829C40.1478 37.1283 39.9279 37.3277 39.6676 37.4591C39.4055 37.5913 39.1126 37.6508 38.8209 37.631C38.5291 37.6111 38.247 37.513 38.0055 37.3468C37.7946 37.2015 37.6202 37.0079 37.4977 36.7833L37.4528 36.6925L37.4303 36.6388C36.496 33.9085 35.1599 31.3349 33.4684 29.0011C33.3369 28.8197 33.1038 28.751 32.899 28.8224L32.8131 28.8615C32.5654 29.0041 32.2855 29.0812 31.9996 29.0812L31.8414 29.0734C31.7892 29.0682 31.7374 29.061 31.6862 29.0509C31.5433 29.0228 31.3962 29.0585 31.2828 29.1466L31.236 29.1876L21.0377 39.3859C20.4904 39.933 19.7603 40.2562 18.9908 40.297L18.817 40.3009C17.9903 40.2987 17.1976 39.9704 16.6129 39.3859C16.0266 38.7995 15.6971 38.0035 15.6969 37.174L15.7008 37.0187C15.7393 36.2455 16.0632 35.5109 16.6129 34.9611L26.8121 24.7618C26.9296 24.6443 26.9816 24.4758 26.9498 24.3126C26.9296 24.2089 26.9186 24.1043 26.9186 24.0001C26.9186 23.714 26.9959 23.4335 27.1383 23.1857C27.2655 22.964 27.2046 22.6824 26.9977 22.5323C24.8196 20.9536 22.4322 19.6837 19.9039 18.7618L19.899 18.7599L19.3473 18.5656L19.3434 18.5646L19.3141 18.5529C19.0482 18.4304 18.8198 18.2379 18.653 17.9962C18.4866 17.7548 18.3878 17.4724 18.3678 17.1798C18.348 16.8874 18.4073 16.5941 18.5397 16.3322C18.6702 16.0741 18.8666 15.8551 19.108 15.6984L19.1676 15.6671C19.1771 15.6632 19.1857 15.6589 19.194 15.6564ZM27.6852 25.4435C27.5142 25.2726 27.2503 25.2516 27.0563 25.38L26.9781 25.4435L17.0377 35.3859C16.5642 35.8596 16.2966 36.5032 16.2965 37.174C16.2968 37.7607 16.5012 38.3269 16.8698 38.7765L17.0377 38.9611C17.5114 39.4346 18.1541 39.7021 18.8248 39.7023C18.8336 39.7023 18.8424 39.7027 18.8512 39.7023L19.0524 39.6915C19.06 39.6911 19.0682 39.6903 19.0758 39.6896C19.5819 39.6392 20.0619 39.437 20.4518 39.1095L20.6129 38.9611L30.5553 29.0197C30.649 28.9259 30.7018 28.7987 30.7018 28.6661C30.7017 28.5336 30.649 28.4063 30.5553 28.3126L27.6852 25.4435ZM38.15 23.8917C38.0327 23.8745 37.914 23.8993 37.8151 23.9601L37.7233 24.0323L33.9 27.8556C33.7255 28.0301 33.7044 28.306 33.8502 28.505C35.6189 30.9149 37.0138 33.5799 37.986 36.4093C37.9939 36.4324 38.0031 36.455 38.0143 36.4767C38.0915 36.6257 38.2049 36.7557 38.3453 36.8527H38.3463C38.4602 36.9309 38.5884 36.986 38.7233 37.0138L38.861 37.0323C39.0452 37.0449 39.2308 37.008 39.3961 36.9249L39.3971 36.924C39.5168 36.8635 39.6174 36.7817 39.6979 36.6925C39.7482 36.6367 39.7852 36.5703 39.8063 36.4982C40.4475 34.3087 40.6259 32.0091 40.3258 29.7462C40.0655 27.7839 39.4515 25.8881 38.5172 24.1495C38.4424 24.0104 38.3063 23.9149 38.15 23.8917ZM34.6666 16.8517C34.4016 16.8519 34.1455 16.9543 33.9537 17.1368L27.8033 23.2872C27.6213 23.4786 27.5183 23.7342 27.5182 24.0001V24.0011C27.5185 24.2673 27.6221 24.5214 27.8033 24.712L27.8121 24.7208L31.2721 28.1818L31.276 28.1857C31.4456 28.3517 31.6664 28.4529 31.899 28.4757L31.9996 28.4806C32.2701 28.4805 32.5294 28.3745 32.7223 28.1857L38.8483 22.0597L38.8522 22.0568C38.9931 21.913 39.0885 21.7311 39.1276 21.5343C39.1309 21.5177 39.1338 21.5004 39.1354 21.4835L39.1451 21.38C39.1466 21.3645 39.1471 21.3487 39.1471 21.3331C39.147 21.0964 39.0656 20.8683 38.9186 20.6857L38.8522 20.6105L35.3873 17.1456L35.3776 17.1368L35.2643 17.0431C35.145 16.9586 35.0089 16.9004 34.8658 16.8722C34.8511 16.8693 34.8359 16.8669 34.8209 16.8654L34.7184 16.8546L34.6666 16.8517ZM26.2535 15.674C23.9904 15.3739 21.6894 15.5509 19.4996 16.1925C19.4636 16.2031 19.4287 16.2173 19.3961 16.2355L19.3053 16.3009C19.21 16.3868 19.132 16.4897 19.0748 16.6027V16.6036C19.0131 16.7261 18.975 16.8606 18.9655 16.9991V17.1388C18.9783 17.3261 19.0422 17.5046 19.1461 17.6554H19.1471C19.2473 17.8006 19.3805 17.9135 19.5299 17.9894C19.5505 17.9998 19.5725 18.0082 19.5944 18.0157C22.4214 18.9878 25.0837 20.3822 27.4918 22.1495C27.6908 22.2956 27.9667 22.2743 28.1412 22.0997L31.9655 18.2755C32.0771 18.1638 32.1299 18.006 32.1071 17.8497C32.084 17.6933 31.9876 17.5564 31.8483 17.4816C30.1105 16.5478 28.2151 15.9341 26.2535 15.674Z" stroke="white" stroke-opacity="0.8" stroke-linecap="round" stroke-linejoin="round"/>
<defs>
<filter id="filter1_f_1_2631" x="9.1969" y="8.43176" width="38.3712" height="38.3704" filterUnits="userSpaceOnUse" color-interpolation-filters="sRGB">
<feFlood flood-opacity="0" result="BackgroundImageFix"/>
<feBlend mode="normal" in="SourceGraphic" in2="BackgroundImageFix" result="shape"/>
<feGaussianBlur stdDeviation="2" result="effect1_foregroundBlur_1_2631"/>
</filter>
<filter id="filter2_f_1_2631" x="5.1969" y="4.43176" width="46.3712" height="46.3704" filterUnits="userSpaceOnUse" color-interpolation-filters="sRGB">
<feFlood flood-opacity="0" result="BackgroundImageFix"/>
<feBlend mode="normal" in="SourceGraphic" in2="BackgroundImageFix" result="shape"/>
<feGaussianBlur stdDeviation="4" result="effect1_foregroundBlur_1_2631"/>
</filter>
<linearGradient id="paint0_linear_1_2631" x1="28.3825" y1="14.4318" x2="28.3825" y2="40.8021" gradientUnits="userSpaceOnUse">
<stop stop-color="#82E024"/>
<stop offset="1" stop-color="#499100"/>
</linearGradient>
<linearGradient id="paint1_linear_1_2631" x1="28.3825" y1="14.4318" x2="28.3825" y2="40.8021" gradientUnits="userSpaceOnUse">
<stop stop-color="#82E024"/>
<stop offset="1" stop-color="#499100"/>
</linearGradient>
</defs>
</svg>
